<svg width="40" height="41" viewBox="0 0 40 41" fill="none" xmlns="http://www.w3.org/2000/svg">
<path d="M11.6667 7.16341V33.8301H28.3334V7.16341H11.6667ZM10 3.83008H30C30.9205 3.83008 31.6667 4.57628 31.6667 5.49674V35.4967C31.6667 36.4172 30.9205 37.1634 30 37.1634H10C9.07957 37.1634 8.33337 36.4172 8.33337 35.4967V5.49674C8.33337 4.57628 9.07957 3.83008 10 3.83008ZM20 28.8301C20.9205 28.8301 21.6667 29.5762 21.6667 30.4967C21.6667 31.4172 20.9205 32.1634 20 32.1634C19.0795 32.1634 18.3334 31.4172 18.3334 30.4967C18.3334 29.5762 19.0795 28.8301 20 28.8301Z" fill="#6D602D"/>
</svg>
