<svg width="40" height="41" viewBox="0 0 40 41" fill="none" xmlns="http://www.w3.org/2000/svg">
<path d="M29.735 27.0957L30.0283 27.3907L30.3241 27.0957C31.7886 25.6312 34.163 25.6312 35.6275 27.0957C37.092 28.5602 37.092 30.9346 35.6275 32.3991L30.0296 37.9969L24.4316 32.3991C22.9671 30.9346 22.9671 28.5602 24.4316 27.0957C25.8961 25.6312 28.2705 25.6312 29.735 27.0957ZM20 24.3307V27.6641C14.4771 27.6641 9.99996 32.1412 9.99996 37.6641H6.66663C6.66663 30.4392 12.413 24.5566 19.5846 24.3371L20 24.3307ZM20 2.66406C25.525 2.66406 30 7.13906 30 12.6641C30 18.0636 25.7261 22.4601 20.375 22.6572L20 22.6641C14.475 22.6641 9.99996 18.1891 9.99996 12.6641C9.99996 7.26463 14.2739 2.86801 19.625 2.67096L20 2.66406ZM20 5.9974C16.3159 5.9974 13.3333 8.98001 13.3333 12.6641C13.3333 16.3481 16.3159 19.3307 20 19.3307C23.684 19.3307 26.6666 16.3481 26.6666 12.6641C26.6666 8.98001 23.684 5.9974 20 5.9974Z" fill="#6D602D"/>
</svg>
