<svg width="40" height="41" viewBox="0 0 40 41" fill="none" xmlns="http://www.w3.org/2000/svg">
<path d="M23.3333 7.89258C25.577 7.89258 27.3958 6.07373 27.3958 3.83008H29.2708C29.2708 6.07373 31.0896 7.89258 33.3333 7.89258V9.76758C31.0896 9.76758 29.2708 11.5864 29.2708 13.8301H27.3958C27.3958 11.5864 25.577 9.76758 23.3333 9.76758V7.89258ZM1.66663 18.8301C7.18948 18.8301 11.6666 14.3529 11.6666 8.83008H15C15 14.3529 19.4771 18.8301 25 18.8301V22.1634C19.4771 22.1634 15 26.6406 15 32.1634H11.6666C11.6666 26.6406 7.18948 22.1634 1.66663 22.1634V18.8301ZM8.12664 20.4967C10.3119 21.7094 12.1207 23.5181 13.3333 25.7034C14.5459 23.5181 16.3547 21.7094 18.54 20.4967C16.3547 19.2841 14.5459 17.4754 13.3333 15.2901C12.1207 17.4754 10.3119 19.2841 8.12664 20.4967ZM28.75 23.8301C28.75 26.8216 26.3248 29.2467 23.3333 29.2467V31.7467C26.3248 31.7467 28.75 34.1719 28.75 37.1634H31.25C31.25 34.1719 33.6751 31.7467 36.6666 31.7467V29.2467C33.6751 29.2467 31.25 26.8216 31.25 23.8301H28.75Z" fill="#6D602D"/>
</svg>
