<svg width="41" height="42" viewBox="0 0 41 42" fill="none" xmlns="http://www.w3.org/2000/svg">
<g clip-path="url(#clip0_745_8310)">
<path fill-rule="evenodd" clip-rule="evenodd" d="M5.22123 18.6343C7.05046 17.9825 8.97539 17.1162 10.4598 15.862C12.2228 14.3723 12.9398 12.4538 13.4213 10.4343C14.0394 7.8397 14.2864 5.07585 15.036 2.47708C15.3135 1.512 15.8476 1.1472 16.0768 0.985303C16.6561 0.576355 17.2416 0.467043 17.7925 0.508043C18.4453 0.55535 19.3421 0.802385 19.9319 1.89677C20.016 2.05341 20.1253 2.29206 20.1989 2.61901C20.2525 2.8587 20.2872 3.60825 20.3439 3.91733C20.4859 4.67846 20.6047 5.43961 20.7161 6.20495C21.0872 8.7522 21.3006 10.9157 22.4728 13.2559C24.0634 16.4328 25.6572 18.3767 27.8186 19.2377C29.9085 20.0703 32.4074 19.9137 35.6002 19.2608C35.904 19.1872 36.2046 19.1241 36.5021 19.0726C37.9098 18.8266 39.2555 19.7507 39.5319 21.1531C39.8084 22.5545 38.9138 23.9201 37.5188 24.2281C37.2276 24.2922 36.9405 24.3532 36.6567 24.4089C32.3422 25.477 27.3476 29.289 24.445 32.6268C23.5503 33.656 22.2405 36.5334 20.9043 38.3689C19.9182 39.7229 18.8101 40.6155 17.8797 40.9309C17.2563 41.1432 16.7307 41.1107 16.2965 41.0034C15.6657 40.8479 15.1422 40.5061 14.7406 39.9626C14.522 39.6651 14.319 39.2667 14.2223 38.7579C14.1761 38.5129 14.1708 37.8906 14.1719 37.6089C13.8996 36.6722 13.5663 35.7575 13.3235 34.8124C12.7442 32.5574 11.6078 31.1298 10.2579 29.2438C8.99535 27.4787 7.63924 26.3696 5.65126 25.4844C5.39265 25.4213 3.30584 24.9104 2.5689 24.6171C1.49238 24.1871 0.97933 23.467 0.793253 23.079C0.476817 22.4209 0.444256 21.8459 0.507333 21.3665C0.600897 20.659 0.918386 20.0535 1.48187 19.5646C1.8309 19.2608 2.35234 18.9654 3.05039 18.8214C3.5897 18.7089 5.02043 18.6437 5.22123 18.6343ZM17.4634 14.9589C17.5601 15.1744 17.6632 15.391 17.7725 15.6097C20.1022 20.2627 22.7072 22.8604 25.8737 24.1209L25.9799 24.1619C23.8615 25.7346 21.944 27.4923 20.4785 29.1776C19.875 29.8714 19.0761 31.3127 18.213 32.7908C17.4287 30.2415 16.1462 28.4396 14.5335 26.1846C13.3014 24.4636 12.0104 23.1685 10.4241 22.113C11.6551 21.4811 12.8294 20.741 13.8523 19.8769C15.5554 18.4377 16.6813 16.7703 17.4634 14.9589Z" fill="#00022C"/>
</g>
<defs>
<clipPath id="clip0_745_8310">
<rect width="41" height="41" fill="white" transform="translate(0 0.5)"/>
</clipPath>
</defs>
</svg>
