<svg width="110" height="35" viewBox="0 0 110 35" fill="none" xmlns="http://www.w3.org/2000/svg">
<g clip-path="url(#clip0_745_8387)">
<path fill-rule="evenodd" clip-rule="evenodd" d="M24.1183 4.64798C22.3237 4.61262 19.3354 4.04671 16.5993 3.87874C14.2248 3.73331 11.9923 3.92245 10.454 4.59653C8.9348 5.26 7.82873 6.44065 7.05785 7.91788C6.27856 9.42474 5.87537 11.2751 5.49302 12.725C3.88937 18.82 2.84817 25.0649 1.43149 31.2002C1.06417 32.7662 2.04175 34.3394 3.60783 34.7067C5.18364 35.0736 6.74682 34.0864 7.11414 32.5204C8.52374 26.4439 9.55763 20.2482 11.1445 14.2124C11.3938 13.2656 11.6133 12.0958 12.0434 11.0531C12.218 10.6067 12.3621 10.1325 12.7825 9.94774C13.6524 9.57689 14.9118 9.62676 16.2507 9.71207C19.0747 9.88578 22.1604 10.457 24.0134 10.4897C25.6228 10.5238 26.9576 9.23523 26.9819 7.62628C27.016 6.01687 25.7374 4.68158 24.1183 4.64798Z" fill="#3D5FEA"/>
<path fill-rule="evenodd" clip-rule="evenodd" d="M23.342 17.304C18.9483 17.5427 14.465 17.5222 10.0589 17.4886C8.45039 17.474 7.12551 18.7718 7.11092 20.3803C7.1065 21.9981 8.39419 23.3135 10.0124 23.3277C14.5356 23.3657 19.1455 23.3804 23.6559 23.1364C25.2697 23.0533 26.5029 21.672 26.4101 20.0586C26.3274 18.4545 24.9461 17.2213 23.342 17.304Z" fill="#3D5FEA"/>
<path fill-rule="evenodd" clip-rule="evenodd" d="M30.4626 11.043C30.254 12.6701 29.9265 15.1113 29.8059 15.6722C28.7675 20.4845 27.7289 25.2872 26.6313 30.0827C26.2644 31.6585 27.2513 33.2215 28.8174 33.5888C30.3928 33.9459 31.9564 32.9685 32.3233 31.3927C33.4292 26.5676 34.4767 21.7452 35.5137 16.9037C35.7069 16.0082 36.3076 12.0734 36.4623 10.3318C36.5574 9.20686 36.3571 8.44623 36.2793 8.23538C35.9707 7.45035 35.4647 7.0348 35.0439 6.78108C34.1925 6.27408 33.2422 6.16139 32.1947 6.69624C32.0139 6.79216 30.9577 7.35657 30.4171 9.39827C30.2673 9.96052 30.2929 10.5245 30.4626 11.043Z" fill="#3D5FEA"/>
<path fill-rule="evenodd" clip-rule="evenodd" d="M43.9407 22.8315C48.0157 20.941 50.983 16.7621 51.5311 12.9563C51.8861 10.4748 51.2933 8.1535 49.7037 6.41326C48.2685 4.85115 45.9245 3.6615 42.2893 3.65133C40.4377 3.6478 38.693 4.28266 37.0005 4.99299C35.0503 5.82223 33.0732 6.9158 31.553 8.41735C30.406 9.55113 30.4025 11.4028 31.5363 12.5498C32.6701 13.6968 34.5217 13.7003 35.6687 12.5666C36.6571 11.5862 37.9912 10.9213 39.2721 10.3758C40.238 9.97137 41.2098 9.48868 42.2822 9.4984C43.9583 9.50017 45.0714 9.76141 45.5567 10.5774C45.9687 11.2798 45.8156 12.2028 45.5058 13.1036C44.833 15.0247 43.1843 16.9121 41.086 17.6993C39.1115 18.4225 37.3235 18.3187 35.284 18.2554C32.7561 18.1657 32.3079 20.096 32.2027 20.5685C32.0493 21.2674 32.0029 22.3901 33.1305 23.401C33.2826 23.5305 33.6159 23.7881 34.1224 23.9989C34.5003 24.1669 35.2912 24.4137 35.6297 24.5737C36.5253 24.9812 37.4426 25.4363 38.2758 25.9734C40.9058 27.6663 43.3391 29.7484 45.0484 32.409C45.909 33.7633 47.72 34.1583 49.074 33.288C50.438 32.4269 50.8331 30.6161 49.9627 29.2622C48.3679 26.7621 46.2737 24.6354 43.9407 22.8315Z" fill="#3D5FEA"/>
<path fill-rule="evenodd" clip-rule="evenodd" d="M79.0279 2.75865C76.6242 2.61456 72.9699 1.75742 69.6234 1.66592C66.7157 1.58371 64.02 2.08628 62.0853 3.47025C59.8014 5.10396 58.2992 7.64743 57.3311 10.5758C56.1589 14.1566 55.804 18.3532 55.1931 21.4213C54.9001 22.906 54.4715 24.621 54.5815 26.1848C54.6823 27.7589 55.2362 29.2248 56.4906 30.4541C58.1628 32.0834 60.5098 32.912 63.1129 33.1542C66.1465 33.4354 69.5342 32.9305 71.922 32.7246C73.5332 32.5831 74.7159 31.1652 74.5745 29.5541C74.4335 27.9526 73.0151 26.7599 71.4137 26.9009C69.6279 27.06 67.2088 27.4333 64.8784 27.4028C63.2306 27.3803 61.5981 27.2692 60.5686 26.2733C60.2221 25.9383 60.3851 25.4533 60.4426 25.0025C60.5509 24.1693 60.7755 23.321 60.9258 22.5541C61.4094 20.1155 61.7033 16.9352 62.4357 13.9688C63.0032 11.6627 63.7696 9.44511 65.478 8.22734C66.8275 7.25975 68.8906 7.40969 70.9455 7.59888C73.793 7.85923 76.6855 8.46822 78.6981 8.58137C80.3004 8.6742 81.6866 7.44192 81.7794 5.83959C81.8718 4.22753 80.64 2.85104 79.0279 2.75865Z" fill="#3D5FEA"/>
<path fill-rule="evenodd" clip-rule="evenodd" d="M75.1212 14.7927C70.674 14.4979 66.2052 14.7984 61.7558 14.8837C60.1491 14.908 58.865 16.2431 58.8897 17.8596C58.9237 19.4659 60.2586 20.75 61.8649 20.716C66.149 20.6382 70.462 20.335 74.743 20.6178C76.3457 20.7204 77.7419 19.4972 77.8444 17.8944C77.9465 16.2819 76.7337 14.8948 75.1212 14.7927Z" fill="#3D5FEA"/>
<path fill-rule="evenodd" clip-rule="evenodd" d="M87.4062 24.2828C87.4235 24.0189 87.4621 23.5787 87.5178 23.3033C87.699 22.3596 87.9597 21.4512 88.0384 20.824C88.3774 18.4211 88.6984 15.4053 89.4273 12.5755C90.0324 10.2385 90.8664 8.00813 92.4895 6.62858C92.9117 6.26833 93.5102 6.14366 94.1683 6.04553C95.2225 5.87094 96.4112 5.86566 97.6122 5.91826C100.589 6.02655 103.627 6.39506 105.526 6.15283C107.125 5.95348 108.257 4.48908 108.057 2.89029C107.848 1.29194 106.384 0.159924 104.785 0.359276C102.731 0.628025 99.1757 0.0101063 96.0206 0.0560766C93.0696 0.0927645 90.409 0.73024 88.7108 2.17167C86.6841 3.89114 85.2864 6.3713 84.3418 9.17195C83.1501 12.7537 82.7033 16.857 82.2622 20.0148C82.0911 21.1821 81.4361 23.2778 81.5585 24.8995C81.6624 26.3273 82.2043 27.5304 83.179 28.3923C84.9351 29.9398 87.2787 30.6909 89.8411 30.896C92.8632 31.1387 96.2007 30.6068 98.665 30.3681C100.276 30.217 101.448 28.7898 101.297 27.179C101.147 25.578 99.719 24.3955 98.1184 24.556C96.2553 24.7284 93.8471 25.1302 91.5177 25.1192C90.0073 25.1196 88.5117 25.0219 87.4062 24.2828Z" fill="#3D5FEA"/>
<path fill-rule="evenodd" clip-rule="evenodd" d="M103.608 13.7616C98.7309 13.6617 93.9213 13.5393 89.06 13.7798C87.4462 13.8629 86.2028 15.2349 86.2859 16.8487C86.3685 18.4528 87.7403 19.6962 89.3542 19.6131C94.0794 19.3789 98.7524 19.4977 103.483 19.5945C105.092 19.6285 106.428 18.3499 106.462 16.7405C106.495 15.1214 105.217 13.7859 103.608 13.7616Z" fill="#3D5FEA"/>
</g>
<defs>
<clipPath id="clip0_745_8387">
<rect width="110" height="35" fill="white"/>
</clipPath>
</defs>
</svg>
