<svg width="40" height="40" viewBox="0 0 40 40" fill="none" xmlns="http://www.w3.org/2000/svg">
<path d="M36.6667 18.3337V33.3337H33.3334V28.3337H6.66671V33.3337H3.33337V6.66699H6.66671V23.3337H20V11.667H30C33.6819 11.667 36.6667 14.6518 36.6667 18.3337ZM33.3334 23.3337V18.3337C33.3334 16.4927 31.841 15.0003 30 15.0003H23.3334V23.3337H33.3334ZM13.3334 18.3337C14.2538 18.3337 15 17.5875 15 16.667C15 15.7465 14.2538 15.0003 13.3334 15.0003C12.4129 15.0003 11.6667 15.7465 11.6667 16.667C11.6667 17.5875 12.4129 18.3337 13.3334 18.3337ZM13.3334 21.667C10.572 21.667 8.33337 19.4285 8.33337 16.667C8.33337 13.9056 10.572 11.667 13.3334 11.667C16.0948 11.667 18.3334 13.9056 18.3334 16.667C18.3334 19.4285 16.0948 21.667 13.3334 21.667Z" fill="#3d5fea"/>
</svg>
