<svg width="40" height="40" viewBox="0 0 40 40" fill="none" xmlns="http://www.w3.org/2000/svg">
<path d="M3.33331 8.33301L15 3.33301L25 8.33301L35.505 3.83084C35.9282 3.64954 36.418 3.84549 36.5993 4.26852C36.6437 4.37226 36.6667 4.48394 36.6667 4.59679V31.6663L25 36.6663L15 31.6663L4.49491 36.1685C4.07188 36.3498 3.582 36.1538 3.4007 35.7308C3.35623 35.6272 3.33331 35.5153 3.33331 35.4025V8.33301ZM26.6667 32.3255L33.3333 29.4683V8.38814L26.6667 11.2453V32.3255ZM23.3333 32.1062V11.2265L16.6666 7.89313V28.7728L23.3333 32.1062ZM13.3333 28.754V7.67386L6.66665 10.531V31.6112L13.3333 28.754Z" fill="#3d5fea"/>
</svg>
