<svg width="21" height="20" viewBox="0 0 21 20" fill="none" xmlns="http://www.w3.org/2000/svg">
<path d="M8.30463 8.90175C9.085 10.274 10.226 11.415 11.5982 12.1953L12.3353 11.1634C12.5804 10.8204 13.043 10.7144 13.413 10.9165C14.5853 11.5569 15.8809 11.9461 17.2324 12.0531C17.6658 12.0874 18 12.4491 18 12.8838V16.6028C18 17.0301 17.6768 17.3881 17.2518 17.4318C16.8102 17.4772 16.3647 17.5 15.9167 17.5C8.78299 17.5 3 11.717 3 4.58333C3 4.13522 3.02285 3.68976 3.06824 3.24813C3.11192 2.82312 3.46995 2.5 3.89721 2.5H7.61618C8.05092 2.5 8.41261 2.8342 8.44692 3.26757C8.55389 4.61907 8.94308 5.9147 9.5835 7.08703C9.78558 7.457 9.67958 7.91962 9.33658 8.16464L8.30463 8.90175ZM6.20354 8.35433L7.78683 7.22341C7.33789 6.25428 7.03023 5.22652 6.87273 4.16667H4.67422C4.66919 4.30527 4.66667 4.44417 4.66667 4.58333C4.66667 10.7965 9.7035 15.8333 15.9167 15.8333C16.0558 15.8333 16.1947 15.8308 16.3333 15.8257V13.6272C15.2735 13.4697 14.2457 13.1621 13.2766 12.7132L12.1457 14.2965C11.6882 14.1187 11.2463 13.9096 10.8228 13.6717L10.7744 13.6442C9.14142 12.7156 7.78445 11.3586 6.85583 9.72558L6.82828 9.67717C6.59041 9.25367 6.38128 8.81183 6.20354 8.35433Z" fill="white"/>
</svg>
