<svg width="30" height="30" viewBox="0 0 30 30" fill="none" xmlns="http://www.w3.org/2000/svg">
<path fill-rule="evenodd" clip-rule="evenodd" d="M13.3528 11.2714C10.5681 8.98226 8.31156 6.25617 6.61591 3.08008C6.27678 2.44747 5.48768 2.20617 4.84855 2.5453C4.21594 2.88443 3.97459 3.67357 4.31372 4.3127C6.17894 7.78879 8.6442 10.7758 11.6964 13.2866C12.2507 13.7431 13.0789 13.6649 13.5355 13.1105C13.992 12.5497 13.9072 11.7279 13.3528 11.2714Z" fill="#00022C"/>
<path fill-rule="evenodd" clip-rule="evenodd" d="M11.8679 2.35571C12.0113 4.99049 12.1418 7.62527 12.3048 10.2601C12.3505 10.9774 12.9701 11.5253 13.6875 11.4796C14.4048 11.434 14.9527 10.8144 14.907 10.097C14.744 7.46875 14.6135 4.8405 14.47 2.20572C14.4309 1.49028 13.8113 0.939195 13.094 0.979629C12.3766 1.02006 11.8222 1.63636 11.8679 2.35571Z" fill="#00022C"/>
<path fill-rule="evenodd" clip-rule="evenodd" d="M21.55 2.89035C19.8805 5.40774 17.9892 7.72945 16.0849 10.0773C15.6284 10.6381 15.7131 11.4599 16.274 11.9099C16.8348 12.3664 17.6566 12.2816 18.1066 11.7208C20.0631 9.31425 22.0066 6.92076 23.7283 4.33163C24.1262 3.73163 23.9566 2.92296 23.3566 2.52513C22.7631 2.12731 21.9479 2.29035 21.55 2.89035Z" fill="#00022C"/>
<path fill-rule="evenodd" clip-rule="evenodd" d="M28.0174 12.2492C23.4913 12.4514 18.6848 12.4579 14.1587 12.1709C13.4413 12.1318 12.8217 12.6731 12.7761 13.397C12.7304 14.1144 13.2783 14.734 13.9957 14.7796C18.613 15.0666 23.5174 15.0601 28.1348 14.8579C28.8522 14.8253 29.413 14.2123 29.3804 13.4949C29.3478 12.7775 28.7348 12.2166 28.0174 12.2492Z" fill="#00022C"/>
<path fill-rule="evenodd" clip-rule="evenodd" d="M11.693 13.0772C14.4843 16.4946 17.3734 19.8468 19.9626 23.4207C20.3865 24.0011 21.2017 24.1315 21.7887 23.7076C22.3691 23.2837 22.4995 22.4685 22.0756 21.888C19.4538 18.275 16.5321 14.8837 13.7082 11.4272C13.2517 10.8728 12.4299 10.7881 11.8756 11.2446C11.3147 11.7011 11.2364 12.5228 11.693 13.0772Z" fill="#00022C"/>
<path fill-rule="evenodd" clip-rule="evenodd" d="M12.5382 14.0687C13.2686 17.6295 13.4708 21.0339 13.523 24.6404C13.5295 25.3578 14.123 25.9317 14.8404 25.9252C15.5643 25.9122 16.1382 25.3252 16.1251 24.6013C16.073 20.8252 15.8578 17.2709 15.0947 13.5404C14.9447 12.8361 14.26 12.3795 13.5491 12.5295C12.8447 12.673 12.3882 13.3643 12.5382 14.0687Z" fill="#00022C"/>
<path fill-rule="evenodd" clip-rule="evenodd" d="M12.6559 13.7819C10.5429 18.008 9.45376 22.7037 7.19071 26.8384C6.84506 27.4645 7.07979 28.2602 7.7124 28.6058C8.34501 28.9515 9.1342 28.7167 9.47985 28.0906C11.7559 23.9297 12.8581 19.208 14.9907 14.9493C15.3103 14.3036 15.0494 13.521 14.4102 13.1949C13.7646 12.8754 12.982 13.1363 12.6559 13.7819Z" fill="#00022C"/>
<path fill-rule="evenodd" clip-rule="evenodd" d="M13.8188 12.8233C9.61232 13.5668 5.41232 13.9059 1.17971 14.4081C0.462317 14.4928 -0.0463786 15.1385 0.038404 15.8559C0.123187 16.5733 0.768899 17.082 1.48629 16.9972C5.76455 16.495 10.0167 16.1428 14.2754 15.3928C14.9798 15.2624 15.4558 14.5841 15.3319 13.8798C15.2015 13.1689 14.5297 12.6928 13.8188 12.8233Z" fill="#00022C"/>
<path fill-rule="evenodd" clip-rule="evenodd" d="M16.7459 10.8411C15.8785 10.802 15.0567 10.7433 14.2089 10.6193C13.4915 10.515 12.8328 11.0106 12.7285 11.7215C12.6241 12.4324 13.1197 13.0976 13.8306 13.202C14.7697 13.3389 15.6763 13.4041 16.6285 13.4433C17.3459 13.4759 17.9589 12.9215 17.985 12.1976C18.0176 11.4802 17.4633 10.8737 16.7459 10.8411Z" fill="#00022C"/>
</svg>
