<svg width="75" height="75" viewBox="0 0 75 75" fill="none" xmlns="http://www.w3.org/2000/svg">
<path fill-rule="evenodd" clip-rule="evenodd" d="M71.009 23.6026C56.9325 49.7775 28.8132 60.4191 2.69652 45.6832C1.82709 45.1926 0.724552 45.4993 0.233868 46.358C-0.256816 47.2321 0.0498944 48.3361 0.919326 48.8268C28.9129 64.636 59.1037 53.3657 74.1923 25.32C74.6645 24.4459 74.3349 23.3418 73.4563 22.8664C72.5776 22.4064 71.4812 22.7286 71.009 23.6026Z" fill="#00022C"/>
<path d="M24.6744 34.457C27.5822 34.457 29.9394 32.0999 29.9394 29.1921C29.9394 26.2844 27.5822 23.9272 24.6744 23.9272C21.7667 23.9272 19.4095 26.2844 19.4095 29.1921C19.4095 32.0999 21.7667 34.457 24.6744 34.457Z" fill="#00022C"/>
<path d="M46.4704 28.8567C49.3213 28.8567 51.6325 26.5456 51.6325 23.6947C51.6325 20.8438 49.3213 18.5327 46.4704 18.5327C43.6195 18.5327 41.3084 20.8438 41.3084 23.6947C41.3084 26.5456 43.6195 28.8567 46.4704 28.8567Z" fill="#00022C"/>
</svg>
