<svg width="251" height="92" viewBox="0 0 251 92" fill="none" xmlns="http://www.w3.org/2000/svg">
<path fill-rule="evenodd" clip-rule="evenodd" d="M44.6234 43.4473C41.8831 43.9625 39.3113 44.7084 36.992 45.7542C36.7394 45.8695 36.6628 46.031 36.6398 46.1002C36.6015 46.2232 36.6169 46.3386 36.6781 46.4463C36.7164 46.5155 36.7777 46.6001 36.9078 46.6539C36.9996 46.6924 37.2369 46.7231 37.5507 46.7154C38.0865 46.7077 38.9132 46.6462 39.3113 46.6462C40.6738 46.6616 42.0362 46.6538 43.3987 46.6769C47.7387 46.7538 48.4964 46.8153 54.0765 46.7692C60.5903 46.7154 67.1195 46.6231 73.641 46.4847C52.913 47.6381 32.2157 48.9838 11.6254 50.2373C11.3958 50.2527 11.2198 50.4526 11.2351 50.6833C11.2427 50.9217 11.4494 51.0986 11.679 51.0832C59.7254 48.1611 108.3 44.716 156.714 44.493C159.102 44.5469 161.482 44.6007 163.855 44.6545C178.192 44.9929 192.536 45.4004 206.857 46.031C211.519 46.2386 216.18 46.4693 220.85 46.6846C222.227 46.7461 223.613 46.8076 224.998 46.8692C226.116 46.9153 228.994 47.0845 229.399 47.0922C229.767 47.0999 229.859 46.7693 229.866 46.7539C229.889 46.6462 229.874 46.5231 229.782 46.4078C229.759 46.377 229.698 46.2925 229.56 46.254C229.537 46.254 229.43 46.2386 229.208 46.2155C217.696 45.2697 206.153 44.6161 194.587 44.2008C196.141 44.2162 197.695 44.2239 199.249 44.2393C211.228 44.3316 223.238 44.6623 235.209 44.2393C237.934 44.147 240.667 44.0393 243.384 43.9086C245.213 43.824 249.921 43.9317 250.587 43.7318C250.893 43.6472 250.962 43.4318 250.969 43.3242C250.977 43.2012 250.954 43.0627 250.816 42.9397C250.755 42.8782 250.564 42.7783 250.204 42.7014C238.455 40.1407 224.707 40.8635 212.744 40.1483C180.251 38.1874 147.873 39.4947 115.388 40.6867C87.3499 41.7171 59.312 41.7709 31.2894 43.1704C21.0326 43.678 10.4543 43.0936 0.342936 45.0314C0.113305 45.0775 -0.0321758 45.2928 0.00609592 45.5234C0.052022 45.7541 0.274017 45.908 0.503648 45.8618C10.5691 43.9317 21.1092 44.5238 31.3277 44.0163C35.7596 43.7933 40.1915 43.6087 44.6234 43.4473ZM131.309 44.0163C114.14 43.7471 96.9715 43.6087 79.7875 43.6933C67.9998 43.7471 50.8234 41.4941 39.1123 45.8004C39.1965 45.8004 39.2653 45.8004 39.3265 45.8004C40.689 45.8157 42.0515 45.8003 43.414 45.8311C47.7464 45.908 48.5041 45.9695 54.0688 45.9233C68.2982 45.8003 82.566 45.4928 96.7878 45.016C108.308 44.6315 119.812 44.2854 131.309 44.0163ZM247.448 43.0243C236.342 41.0711 223.75 41.6556 212.69 40.9943C180.228 39.0334 147.873 40.3406 115.418 41.5325C100.913 42.0708 86.4162 42.3399 71.9265 42.6706C74.705 42.7782 77.3611 42.8551 79.7875 42.8474C104.35 42.7244 128.905 43.0551 153.468 43.578C168.723 43.3473 183.979 43.2627 199.257 43.3858C211.228 43.4857 223.215 43.8087 235.186 43.3935C237.903 43.3012 240.628 43.1935 243.346 43.0628C244.272 43.0243 245.948 43.032 247.448 43.0243Z" fill="#00022C"/>
</svg>
