<svg width="40" height="41" viewBox="0 0 40 41" fill="none" xmlns="http://www.w3.org/2000/svg">
<path d="M25.8363 33.8415C24.7387 36.4738 22.6323 38.5803 20 39.678C17.3677 38.5803 15.2613 36.4738 14.1636 33.8415H17.9292C18.473 34.6558 19.1752 35.3622 20 35.9137C20.8248 35.3622 21.527 34.6558 22.0708 33.8415H25.8363ZM30 25.1828L33.3333 28.9632V32.1748H6.66666V28.9632L9.99999 25.1828V15.5082C9.99999 9.70283 14.174 4.76398 20 2.93359C25.826 4.76398 30 9.70283 30 15.5082V25.1828ZM28.782 28.8415L26.6667 26.4425V15.5082C26.6667 11.6452 24.0487 8.12413 20 6.47334C15.9513 8.12413 13.3333 11.6452 13.3333 15.5082V26.4425L11.2179 28.8415H28.782ZM20 18.8415C18.159 18.8415 16.6667 17.3492 16.6667 15.5082C16.6667 13.6673 18.159 12.1749 20 12.1749C21.841 12.1749 23.3333 13.6673 23.3333 15.5082C23.3333 17.3492 21.841 18.8415 20 18.8415Z" fill="#6D602D"/>
</svg>
