<svg width="40" height="41" viewBox="0 0 40 41" fill="none" xmlns="http://www.w3.org/2000/svg">
<path d="M23.3333 22.9997V13.833C23.3333 10.1511 20.3485 7.16634 16.6667 7.16634C12.9848 7.16634 9.99999 10.1511 9.99999 13.833V22.9997C9.99999 28.9828 14.8502 33.833 20.8333 33.833C26.8165 33.833 31.6667 28.9828 31.6667 22.9997V7.16634H35V22.9997C35 30.8237 28.6573 37.1663 20.8333 37.1663C13.0093 37.1663 6.66666 30.8237 6.66666 22.9997V13.833C6.66666 8.31016 11.1438 3.83301 16.6667 3.83301C22.1895 3.83301 26.6667 8.31016 26.6667 13.833V22.9997C26.6667 26.2213 24.055 28.833 20.8333 28.833C17.6117 28.833 15 26.2213 15 22.9997V13.833H18.3333V22.9997C18.3333 24.3803 19.4527 25.4997 20.8333 25.4997C22.214 25.4997 23.3333 24.3803 23.3333 22.9997Z" fill="#6D602D"/>
</svg>
