<svg xmlns="http://www.w3.org/2000/svg" xmlns:xlink="http://www.w3.org/1999/xlink" width="144" zoomAndPan="magnify" viewBox="0 0 108 30.000001" height="40" preserveAspectRatio="xMidYMid meet" version="1.0"><defs><g/></defs><g fill="#04145c" fill-opacity="0.7294"><g transform="translate(2.640341, 18.486209)"><g><path d="M 5.25 -12.109375 C 5.894531 -12.109375 6.523438 -12.015625 7.140625 -11.828125 C 7.753906 -11.640625 8.210938 -11.457031 8.515625 -11.28125 L 8.9375 -10.984375 L 7.84375 -8.828125 C 7.757812 -8.878906 7.640625 -8.953125 7.484375 -9.046875 C 7.328125 -9.140625 7.035156 -9.257812 6.609375 -9.40625 C 6.191406 -9.5625 5.800781 -9.640625 5.4375 -9.640625 C 4.988281 -9.640625 4.640625 -9.546875 4.390625 -9.359375 C 4.148438 -9.171875 4.03125 -8.910156 4.03125 -8.578125 C 4.03125 -8.410156 4.085938 -8.257812 4.203125 -8.125 C 4.316406 -7.988281 4.507812 -7.835938 4.78125 -7.671875 C 5.0625 -7.515625 5.304688 -7.390625 5.515625 -7.296875 C 5.734375 -7.203125 6.0625 -7.054688 6.5 -6.859375 C 7.269531 -6.535156 7.925781 -6.09375 8.46875 -5.53125 C 9.007812 -4.96875 9.28125 -4.332031 9.28125 -3.625 C 9.28125 -2.9375 9.15625 -2.335938 8.90625 -1.828125 C 8.664062 -1.316406 8.332031 -0.914062 7.90625 -0.625 C 7.476562 -0.34375 7.003906 -0.132812 6.484375 0 C 5.972656 0.144531 5.410156 0.21875 4.796875 0.21875 C 4.285156 0.21875 3.78125 0.164062 3.28125 0.0625 C 2.78125 -0.0390625 2.359375 -0.171875 2.015625 -0.328125 C 1.679688 -0.492188 1.378906 -0.648438 1.109375 -0.796875 C 0.835938 -0.953125 0.640625 -1.085938 0.515625 -1.203125 L 0.328125 -1.359375 L 1.6875 -3.640625 C 1.800781 -3.535156 1.957031 -3.410156 2.15625 -3.265625 C 2.363281 -3.117188 2.722656 -2.921875 3.234375 -2.671875 C 3.753906 -2.421875 4.207031 -2.296875 4.59375 -2.296875 C 5.738281 -2.296875 6.3125 -2.6875 6.3125 -3.46875 C 6.3125 -3.625 6.269531 -3.769531 6.1875 -3.90625 C 6.113281 -4.050781 5.972656 -4.191406 5.765625 -4.328125 C 5.554688 -4.472656 5.367188 -4.582031 5.203125 -4.65625 C 5.046875 -4.738281 4.785156 -4.863281 4.421875 -5.03125 C 4.066406 -5.207031 3.804688 -5.335938 3.640625 -5.421875 C 2.910156 -5.773438 2.347656 -6.21875 1.953125 -6.75 C 1.566406 -7.289062 1.375 -7.867188 1.375 -8.484375 C 1.375 -9.546875 1.765625 -10.414062 2.546875 -11.09375 C 3.335938 -11.769531 4.238281 -12.109375 5.25 -12.109375 Z M 5.25 -12.109375 "/></g></g></g><g fill="#04145c" fill-opacity="0.7294"><g transform="translate(12.326562, 18.486209)"><g><path d="M 1.296875 -7.40625 L 1.296875 -10.15625 L 3.84375 -10.15625 L 3.84375 -7.40625 L 5.40625 -7.40625 L 5.40625 -5.453125 L 3.84375 -5.453125 L 3.84375 -3.09375 C 3.84375 -2.414062 4.035156 -2.078125 4.421875 -2.078125 C 4.523438 -2.078125 4.628906 -2.09375 4.734375 -2.125 C 4.835938 -2.164062 4.914062 -2.207031 4.96875 -2.25 L 5.0625 -2.3125 L 5.703125 -0.25 C 5.148438 0.0625 4.523438 0.21875 3.828125 0.21875 C 3.335938 0.21875 2.921875 0.132812 2.578125 -0.03125 C 2.234375 -0.195312 1.972656 -0.421875 1.796875 -0.703125 C 1.617188 -0.992188 1.488281 -1.296875 1.40625 -1.609375 C 1.332031 -1.921875 1.296875 -2.253906 1.296875 -2.609375 L 1.296875 -5.453125 L 0.234375 -5.453125 L 0.234375 -7.40625 Z M 1.296875 -7.40625 "/></g></g></g><g fill="#04145c" fill-opacity="0.7294"><g transform="translate(18.020104, 18.486209)"><g><path d="M 3.28125 -7.40625 L 3.28125 -3.875 C 3.28125 -3.144531 3.390625 -2.625 3.609375 -2.3125 C 3.828125 -2.007812 4.203125 -1.859375 4.734375 -1.859375 C 5.265625 -1.859375 5.640625 -2.007812 5.859375 -2.3125 C 6.078125 -2.625 6.1875 -3.144531 6.1875 -3.875 L 6.1875 -7.40625 L 8.734375 -7.40625 L 8.734375 -3.265625 C 8.734375 -2.023438 8.414062 -1.132812 7.78125 -0.59375 C 7.144531 -0.0507812 6.128906 0.21875 4.734375 0.21875 C 3.335938 0.21875 2.316406 -0.0507812 1.671875 -0.59375 C 1.035156 -1.132812 0.71875 -2.023438 0.71875 -3.265625 L 0.71875 -7.40625 Z M 3.28125 -7.40625 "/></g></g></g><g fill="#04145c" fill-opacity="0.7294"><g transform="translate(27.4757, 18.486209)"><g><path d="M 1.359375 -0.90625 C 0.671875 -1.664062 0.328125 -2.59375 0.328125 -3.6875 C 0.328125 -4.789062 0.671875 -5.71875 1.359375 -6.46875 C 2.054688 -7.226562 2.941406 -7.609375 4.015625 -7.609375 C 4.992188 -7.609375 5.800781 -7.300781 6.4375 -6.6875 L 6.4375 -12.40625 L 8.984375 -12.40625 L 8.984375 0 L 6.46875 0 L 6.46875 -0.84375 L 6.4375 -0.84375 C 5.800781 -0.132812 4.992188 0.21875 4.015625 0.21875 C 2.941406 0.21875 2.054688 -0.15625 1.359375 -0.90625 Z M 3.53125 -4.9375 C 3.207031 -4.613281 3.046875 -4.195312 3.046875 -3.6875 C 3.046875 -3.175781 3.203125 -2.757812 3.515625 -2.4375 C 3.835938 -2.125 4.257812 -1.96875 4.78125 -1.96875 C 5.28125 -1.96875 5.6875 -2.128906 6 -2.453125 C 6.320312 -2.773438 6.484375 -3.1875 6.484375 -3.6875 C 6.484375 -4.195312 6.316406 -4.613281 5.984375 -4.9375 C 5.660156 -5.269531 5.257812 -5.4375 4.78125 -5.4375 C 4.28125 -5.4375 3.863281 -5.269531 3.53125 -4.9375 Z M 3.53125 -4.9375 "/></g></g></g><g fill="#04145c" fill-opacity="0.7294"><g transform="translate(37.32048, 18.486209)"><g><path d="M 8.34375 -3.34375 L 2.984375 -3.34375 C 2.984375 -2.820312 3.148438 -2.4375 3.484375 -2.1875 C 3.828125 -1.9375 4.195312 -1.8125 4.59375 -1.8125 C 5 -1.8125 5.320312 -1.867188 5.5625 -1.984375 C 5.800781 -2.097656 6.078125 -2.316406 6.390625 -2.640625 L 8.234375 -1.71875 C 7.460938 -0.425781 6.1875 0.21875 4.40625 0.21875 C 3.28125 0.21875 2.316406 -0.160156 1.515625 -0.921875 C 0.722656 -1.691406 0.328125 -2.613281 0.328125 -3.6875 C 0.328125 -4.769531 0.722656 -5.691406 1.515625 -6.453125 C 2.316406 -7.222656 3.28125 -7.609375 4.40625 -7.609375 C 5.570312 -7.609375 6.519531 -7.269531 7.25 -6.59375 C 7.988281 -5.914062 8.359375 -4.945312 8.359375 -3.6875 C 8.359375 -3.519531 8.351562 -3.40625 8.34375 -3.34375 Z M 3.0625 -4.765625 L 5.875 -4.765625 C 5.8125 -5.148438 5.65625 -5.441406 5.40625 -5.640625 C 5.164062 -5.847656 4.851562 -5.953125 4.46875 -5.953125 C 4.050781 -5.953125 3.71875 -5.84375 3.46875 -5.625 C 3.21875 -5.40625 3.082031 -5.117188 3.0625 -4.765625 Z M 3.0625 -4.765625 "/></g></g></g><g fill="#04145c" fill-opacity="0.7294"><g transform="translate(46.012138, 18.486209)"><g><path d="M 0.859375 0 L 0.859375 -7.40625 L 3.421875 -7.40625 L 3.421875 -6.625 L 3.453125 -6.625 C 4.109375 -7.28125 4.8125 -7.609375 5.5625 -7.609375 C 5.925781 -7.609375 6.289062 -7.5625 6.65625 -7.46875 C 7.019531 -7.375 7.363281 -7.222656 7.6875 -7.015625 C 8.019531 -6.816406 8.289062 -6.53125 8.5 -6.15625 C 8.707031 -5.789062 8.8125 -5.363281 8.8125 -4.875 L 8.8125 0 L 6.265625 0 L 6.265625 -4.1875 C 6.265625 -4.570312 6.140625 -4.90625 5.890625 -5.1875 C 5.648438 -5.476562 5.332031 -5.625 4.9375 -5.625 C 4.550781 -5.625 4.203125 -5.472656 3.890625 -5.171875 C 3.578125 -4.878906 3.421875 -4.550781 3.421875 -4.1875 L 3.421875 0 Z M 0.859375 0 "/></g></g></g><g fill="#04145c" fill-opacity="0.7294"><g transform="translate(55.53981, 18.486209)"><g><path d="M 1.296875 -7.40625 L 1.296875 -10.15625 L 3.84375 -10.15625 L 3.84375 -7.40625 L 5.40625 -7.40625 L 5.40625 -5.453125 L 3.84375 -5.453125 L 3.84375 -3.09375 C 3.84375 -2.414062 4.035156 -2.078125 4.421875 -2.078125 C 4.523438 -2.078125 4.628906 -2.09375 4.734375 -2.125 C 4.835938 -2.164062 4.914062 -2.207031 4.96875 -2.25 L 5.0625 -2.3125 L 5.703125 -0.25 C 5.148438 0.0625 4.523438 0.21875 3.828125 0.21875 C 3.335938 0.21875 2.921875 0.132812 2.578125 -0.03125 C 2.234375 -0.195312 1.972656 -0.421875 1.796875 -0.703125 C 1.617188 -0.992188 1.488281 -1.296875 1.40625 -1.609375 C 1.332031 -1.921875 1.296875 -2.253906 1.296875 -2.609375 L 1.296875 -5.453125 L 0.234375 -5.453125 L 0.234375 -7.40625 Z M 1.296875 -7.40625 "/></g></g></g><g fill="#04145c" fill-opacity="0.7294"><g transform="translate(61.233353, 18.486209)"><g/></g></g><g fill="#04145c" fill-opacity="0.7294"><g transform="translate(65.168385, 18.486209)"><g><path d="M 6.90625 -11.890625 L 11.703125 0 L 8.796875 0 L 7.921875 -2.375 L 3.390625 -2.375 L 2.515625 0 L -0.40625 0 L 4.40625 -11.890625 Z M 7 -4.765625 L 5.671875 -8.21875 L 5.640625 -8.21875 L 4.3125 -4.765625 Z M 7 -4.765625 "/></g></g></g><g fill="#04145c" fill-opacity="0.7294"><g transform="translate(76.468975, 18.486209)"><g><path d="M 1.359375 -0.90625 C 0.671875 -1.664062 0.328125 -2.59375 0.328125 -3.6875 C 0.328125 -4.789062 0.671875 -5.71875 1.359375 -6.46875 C 2.054688 -7.226562 2.941406 -7.609375 4.015625 -7.609375 C 4.992188 -7.609375 5.800781 -7.300781 6.4375 -6.6875 L 6.4375 -12.40625 L 8.984375 -12.40625 L 8.984375 0 L 6.46875 0 L 6.46875 -0.84375 L 6.4375 -0.84375 C 5.800781 -0.132812 4.992188 0.21875 4.015625 0.21875 C 2.941406 0.21875 2.054688 -0.15625 1.359375 -0.90625 Z M 3.53125 -4.9375 C 3.207031 -4.613281 3.046875 -4.195312 3.046875 -3.6875 C 3.046875 -3.175781 3.203125 -2.757812 3.515625 -2.4375 C 3.835938 -2.125 4.257812 -1.96875 4.78125 -1.96875 C 5.28125 -1.96875 5.6875 -2.128906 6 -2.453125 C 6.320312 -2.773438 6.484375 -3.1875 6.484375 -3.6875 C 6.484375 -4.195312 6.316406 -4.613281 5.984375 -4.9375 C 5.660156 -5.269531 5.257812 -5.4375 4.78125 -5.4375 C 4.28125 -5.4375 3.863281 -5.269531 3.53125 -4.9375 Z M 3.53125 -4.9375 "/></g></g></g><g fill="#04145c" fill-opacity="0.7294"><g transform="translate(86.313755, 18.486209)"><g><path d="M 1.359375 -0.90625 C 0.671875 -1.664062 0.328125 -2.59375 0.328125 -3.6875 C 0.328125 -4.789062 0.671875 -5.71875 1.359375 -6.46875 C 2.054688 -7.226562 2.941406 -7.609375 4.015625 -7.609375 C 4.992188 -7.609375 5.800781 -7.300781 6.4375 -6.6875 L 6.4375 -12.40625 L 8.984375 -12.40625 L 8.984375 0 L 6.46875 0 L 6.46875 -0.84375 L 6.4375 -0.84375 C 5.800781 -0.132812 4.992188 0.21875 4.015625 0.21875 C 2.941406 0.21875 2.054688 -0.15625 1.359375 -0.90625 Z M 3.53125 -4.9375 C 3.207031 -4.613281 3.046875 -4.195312 3.046875 -3.6875 C 3.046875 -3.175781 3.203125 -2.757812 3.515625 -2.4375 C 3.835938 -2.125 4.257812 -1.96875 4.78125 -1.96875 C 5.28125 -1.96875 5.6875 -2.128906 6 -2.453125 C 6.320312 -2.773438 6.484375 -3.1875 6.484375 -3.6875 C 6.484375 -4.195312 6.316406 -4.613281 5.984375 -4.9375 C 5.660156 -5.269531 5.257812 -5.4375 4.78125 -5.4375 C 4.28125 -5.4375 3.863281 -5.269531 3.53125 -4.9375 Z M 3.53125 -4.9375 "/></g></g></g><g fill="#04145c" fill-opacity="0.7294"><g transform="translate(96.158535, 18.486209)"><g><path d="M 1.359375 -0.90625 C 0.671875 -1.664062 0.328125 -2.59375 0.328125 -3.6875 C 0.328125 -4.789062 0.671875 -5.71875 1.359375 -6.46875 C 2.054688 -7.226562 2.941406 -7.609375 4.015625 -7.609375 C 4.992188 -7.609375 5.800781 -7.300781 6.4375 -6.6875 L 6.4375 -7.40625 L 8.984375 -7.40625 L 8.984375 0 L 6.46875 0 L 6.46875 -0.84375 L 6.4375 -0.84375 C 5.800781 -0.132812 4.992188 0.21875 4.015625 0.21875 C 2.941406 0.21875 2.054688 -0.15625 1.359375 -0.90625 Z M 3.53125 -4.9375 C 3.207031 -4.613281 3.046875 -4.195312 3.046875 -3.6875 C 3.046875 -3.175781 3.203125 -2.757812 3.515625 -2.4375 C 3.835938 -2.125 4.257812 -1.96875 4.78125 -1.96875 C 5.28125 -1.96875 5.6875 -2.128906 6 -2.453125 C 6.320312 -2.773438 6.484375 -3.1875 6.484375 -3.6875 C 6.484375 -4.195312 6.316406 -4.613281 5.984375 -4.9375 C 5.660156 -5.269531 5.257812 -5.4375 4.78125 -5.4375 C 4.28125 -5.4375 3.863281 -5.269531 3.53125 -4.9375 Z M 3.53125 -4.9375 "/></g></g></g><g fill="#5588f8" fill-opacity="1"><g transform="translate(2.30897, 18.154838)"><g><path d="M 5.25 -12.109375 C 5.894531 -12.109375 6.523438 -12.015625 7.140625 -11.828125 C 7.753906 -11.640625 8.210938 -11.457031 8.515625 -11.28125 L 8.9375 -10.984375 L 7.84375 -8.828125 C 7.757812 -8.878906 7.640625 -8.953125 7.484375 -9.046875 C 7.328125 -9.140625 7.035156 -9.257812 6.609375 -9.40625 C 6.191406 -9.5625 5.800781 -9.640625 5.4375 -9.640625 C 4.988281 -9.640625 4.640625 -9.546875 4.390625 -9.359375 C 4.148438 -9.171875 4.03125 -8.910156 4.03125 -8.578125 C 4.03125 -8.410156 4.085938 -8.257812 4.203125 -8.125 C 4.316406 -7.988281 4.507812 -7.835938 4.78125 -7.671875 C 5.0625 -7.515625 5.304688 -7.390625 5.515625 -7.296875 C 5.734375 -7.203125 6.0625 -7.054688 6.5 -6.859375 C 7.269531 -6.535156 7.925781 -6.09375 8.46875 -5.53125 C 9.007812 -4.96875 9.28125 -4.332031 9.28125 -3.625 C 9.28125 -2.9375 9.15625 -2.335938 8.90625 -1.828125 C 8.664062 -1.316406 8.332031 -0.914062 7.90625 -0.625 C 7.476562 -0.34375 7.003906 -0.132812 6.484375 0 C 5.972656 0.144531 5.410156 0.21875 4.796875 0.21875 C 4.285156 0.21875 3.78125 0.164062 3.28125 0.0625 C 2.78125 -0.0390625 2.359375 -0.171875 2.015625 -0.328125 C 1.679688 -0.492188 1.378906 -0.648438 1.109375 -0.796875 C 0.835938 -0.953125 0.640625 -1.085938 0.515625 -1.203125 L 0.328125 -1.359375 L 1.6875 -3.640625 C 1.800781 -3.535156 1.957031 -3.410156 2.15625 -3.265625 C 2.363281 -3.117188 2.722656 -2.921875 3.234375 -2.671875 C 3.753906 -2.421875 4.207031 -2.296875 4.59375 -2.296875 C 5.738281 -2.296875 6.3125 -2.6875 6.3125 -3.46875 C 6.3125 -3.625 6.269531 -3.769531 6.1875 -3.90625 C 6.113281 -4.050781 5.972656 -4.191406 5.765625 -4.328125 C 5.554688 -4.472656 5.367188 -4.582031 5.203125 -4.65625 C 5.046875 -4.738281 4.785156 -4.863281 4.421875 -5.03125 C 4.066406 -5.207031 3.804688 -5.335938 3.640625 -5.421875 C 2.910156 -5.773438 2.347656 -6.21875 1.953125 -6.75 C 1.566406 -7.289062 1.375 -7.867188 1.375 -8.484375 C 1.375 -9.546875 1.765625 -10.414062 2.546875 -11.09375 C 3.335938 -11.769531 4.238281 -12.109375 5.25 -12.109375 Z M 5.25 -12.109375 "/></g></g></g><g fill="#5588f8" fill-opacity="1"><g transform="translate(11.99519, 18.154838)"><g><path d="M 1.296875 -7.40625 L 1.296875 -10.15625 L 3.84375 -10.15625 L 3.84375 -7.40625 L 5.40625 -7.40625 L 5.40625 -5.453125 L 3.84375 -5.453125 L 3.84375 -3.09375 C 3.84375 -2.414062 4.035156 -2.078125 4.421875 -2.078125 C 4.523438 -2.078125 4.628906 -2.09375 4.734375 -2.125 C 4.835938 -2.164062 4.914062 -2.207031 4.96875 -2.25 L 5.0625 -2.3125 L 5.703125 -0.25 C 5.148438 0.0625 4.523438 0.21875 3.828125 0.21875 C 3.335938 0.21875 2.921875 0.132812 2.578125 -0.03125 C 2.234375 -0.195312 1.972656 -0.421875 1.796875 -0.703125 C 1.617188 -0.992188 1.488281 -1.296875 1.40625 -1.609375 C 1.332031 -1.921875 1.296875 -2.253906 1.296875 -2.609375 L 1.296875 -5.453125 L 0.234375 -5.453125 L 0.234375 -7.40625 Z M 1.296875 -7.40625 "/></g></g></g><g fill="#5588f8" fill-opacity="1"><g transform="translate(17.688733, 18.154838)"><g><path d="M 3.28125 -7.40625 L 3.28125 -3.875 C 3.28125 -3.144531 3.390625 -2.625 3.609375 -2.3125 C 3.828125 -2.007812 4.203125 -1.859375 4.734375 -1.859375 C 5.265625 -1.859375 5.640625 -2.007812 5.859375 -2.3125 C 6.078125 -2.625 6.1875 -3.144531 6.1875 -3.875 L 6.1875 -7.40625 L 8.734375 -7.40625 L 8.734375 -3.265625 C 8.734375 -2.023438 8.414062 -1.132812 7.78125 -0.59375 C 7.144531 -0.0507812 6.128906 0.21875 4.734375 0.21875 C 3.335938 0.21875 2.316406 -0.0507812 1.671875 -0.59375 C 1.035156 -1.132812 0.71875 -2.023438 0.71875 -3.265625 L 0.71875 -7.40625 Z M 3.28125 -7.40625 "/></g></g></g><g fill="#5588f8" fill-opacity="1"><g transform="translate(27.144329, 18.154838)"><g><path d="M 1.359375 -0.90625 C 0.671875 -1.664062 0.328125 -2.59375 0.328125 -3.6875 C 0.328125 -4.789062 0.671875 -5.71875 1.359375 -6.46875 C 2.054688 -7.226562 2.941406 -7.609375 4.015625 -7.609375 C 4.992188 -7.609375 5.800781 -7.300781 6.4375 -6.6875 L 6.4375 -12.40625 L 8.984375 -12.40625 L 8.984375 0 L 6.46875 0 L 6.46875 -0.84375 L 6.4375 -0.84375 C 5.800781 -0.132812 4.992188 0.21875 4.015625 0.21875 C 2.941406 0.21875 2.054688 -0.15625 1.359375 -0.90625 Z M 3.53125 -4.9375 C 3.207031 -4.613281 3.046875 -4.195312 3.046875 -3.6875 C 3.046875 -3.175781 3.203125 -2.757812 3.515625 -2.4375 C 3.835938 -2.125 4.257812 -1.96875 4.78125 -1.96875 C 5.28125 -1.96875 5.6875 -2.128906 6 -2.453125 C 6.320312 -2.773438 6.484375 -3.1875 6.484375 -3.6875 C 6.484375 -4.195312 6.316406 -4.613281 5.984375 -4.9375 C 5.660156 -5.269531 5.257812 -5.4375 4.78125 -5.4375 C 4.28125 -5.4375 3.863281 -5.269531 3.53125 -4.9375 Z M 3.53125 -4.9375 "/></g></g></g><g fill="#5588f8" fill-opacity="1"><g transform="translate(36.989109, 18.154838)"><g><path d="M 8.34375 -3.34375 L 2.984375 -3.34375 C 2.984375 -2.820312 3.148438 -2.4375 3.484375 -2.1875 C 3.828125 -1.9375 4.195312 -1.8125 4.59375 -1.8125 C 5 -1.8125 5.320312 -1.867188 5.5625 -1.984375 C 5.800781 -2.097656 6.078125 -2.316406 6.390625 -2.640625 L 8.234375 -1.71875 C 7.460938 -0.425781 6.1875 0.21875 4.40625 0.21875 C 3.28125 0.21875 2.316406 -0.160156 1.515625 -0.921875 C 0.722656 -1.691406 0.328125 -2.613281 0.328125 -3.6875 C 0.328125 -4.769531 0.722656 -5.691406 1.515625 -6.453125 C 2.316406 -7.222656 3.28125 -7.609375 4.40625 -7.609375 C 5.570312 -7.609375 6.519531 -7.269531 7.25 -6.59375 C 7.988281 -5.914062 8.359375 -4.945312 8.359375 -3.6875 C 8.359375 -3.519531 8.351562 -3.40625 8.34375 -3.34375 Z M 3.0625 -4.765625 L 5.875 -4.765625 C 5.8125 -5.148438 5.65625 -5.441406 5.40625 -5.640625 C 5.164062 -5.847656 4.851562 -5.953125 4.46875 -5.953125 C 4.050781 -5.953125 3.71875 -5.84375 3.46875 -5.625 C 3.21875 -5.40625 3.082031 -5.117188 3.0625 -4.765625 Z M 3.0625 -4.765625 "/></g></g></g><g fill="#5588f8" fill-opacity="1"><g transform="translate(45.680767, 18.154838)"><g><path d="M 0.859375 0 L 0.859375 -7.40625 L 3.421875 -7.40625 L 3.421875 -6.625 L 3.453125 -6.625 C 4.109375 -7.28125 4.8125 -7.609375 5.5625 -7.609375 C 5.925781 -7.609375 6.289062 -7.5625 6.65625 -7.46875 C 7.019531 -7.375 7.363281 -7.222656 7.6875 -7.015625 C 8.019531 -6.816406 8.289062 -6.53125 8.5 -6.15625 C 8.707031 -5.789062 8.8125 -5.363281 8.8125 -4.875 L 8.8125 0 L 6.265625 0 L 6.265625 -4.1875 C 6.265625 -4.570312 6.140625 -4.90625 5.890625 -5.1875 C 5.648438 -5.476562 5.332031 -5.625 4.9375 -5.625 C 4.550781 -5.625 4.203125 -5.472656 3.890625 -5.171875 C 3.578125 -4.878906 3.421875 -4.550781 3.421875 -4.1875 L 3.421875 0 Z M 0.859375 0 "/></g></g></g><g fill="#5588f8" fill-opacity="1"><g transform="translate(55.208439, 18.154838)"><g><path d="M 1.296875 -7.40625 L 1.296875 -10.15625 L 3.84375 -10.15625 L 3.84375 -7.40625 L 5.40625 -7.40625 L 5.40625 -5.453125 L 3.84375 -5.453125 L 3.84375 -3.09375 C 3.84375 -2.414062 4.035156 -2.078125 4.421875 -2.078125 C 4.523438 -2.078125 4.628906 -2.09375 4.734375 -2.125 C 4.835938 -2.164062 4.914062 -2.207031 4.96875 -2.25 L 5.0625 -2.3125 L 5.703125 -0.25 C 5.148438 0.0625 4.523438 0.21875 3.828125 0.21875 C 3.335938 0.21875 2.921875 0.132812 2.578125 -0.03125 C 2.234375 -0.195312 1.972656 -0.421875 1.796875 -0.703125 C 1.617188 -0.992188 1.488281 -1.296875 1.40625 -1.609375 C 1.332031 -1.921875 1.296875 -2.253906 1.296875 -2.609375 L 1.296875 -5.453125 L 0.234375 -5.453125 L 0.234375 -7.40625 Z M 1.296875 -7.40625 "/></g></g></g><g fill="#5588f8" fill-opacity="1"><g transform="translate(60.901981, 18.154838)"><g/></g></g><g fill="#5588f8" fill-opacity="1"><g transform="translate(64.837014, 18.154838)"><g><path d="M 6.90625 -11.890625 L 11.703125 0 L 8.796875 0 L 7.921875 -2.375 L 3.390625 -2.375 L 2.515625 0 L -0.40625 0 L 4.40625 -11.890625 Z M 7 -4.765625 L 5.671875 -8.21875 L 5.640625 -8.21875 L 4.3125 -4.765625 Z M 7 -4.765625 "/></g></g></g><g fill="#5588f8" fill-opacity="1"><g transform="translate(76.137604, 18.154838)"><g><path d="M 1.359375 -0.90625 C 0.671875 -1.664062 0.328125 -2.59375 0.328125 -3.6875 C 0.328125 -4.789062 0.671875 -5.71875 1.359375 -6.46875 C 2.054688 -7.226562 2.941406 -7.609375 4.015625 -7.609375 C 4.992188 -7.609375 5.800781 -7.300781 6.4375 -6.6875 L 6.4375 -12.40625 L 8.984375 -12.40625 L 8.984375 0 L 6.46875 0 L 6.46875 -0.84375 L 6.4375 -0.84375 C 5.800781 -0.132812 4.992188 0.21875 4.015625 0.21875 C 2.941406 0.21875 2.054688 -0.15625 1.359375 -0.90625 Z M 3.53125 -4.9375 C 3.207031 -4.613281 3.046875 -4.195312 3.046875 -3.6875 C 3.046875 -3.175781 3.203125 -2.757812 3.515625 -2.4375 C 3.835938 -2.125 4.257812 -1.96875 4.78125 -1.96875 C 5.28125 -1.96875 5.6875 -2.128906 6 -2.453125 C 6.320312 -2.773438 6.484375 -3.1875 6.484375 -3.6875 C 6.484375 -4.195312 6.316406 -4.613281 5.984375 -4.9375 C 5.660156 -5.269531 5.257812 -5.4375 4.78125 -5.4375 C 4.28125 -5.4375 3.863281 -5.269531 3.53125 -4.9375 Z M 3.53125 -4.9375 "/></g></g></g><g fill="#5588f8" fill-opacity="1"><g transform="translate(85.982384, 18.154838)"><g><path d="M 1.359375 -0.90625 C 0.671875 -1.664062 0.328125 -2.59375 0.328125 -3.6875 C 0.328125 -4.789062 0.671875 -5.71875 1.359375 -6.46875 C 2.054688 -7.226562 2.941406 -7.609375 4.015625 -7.609375 C 4.992188 -7.609375 5.800781 -7.300781 6.4375 -6.6875 L 6.4375 -12.40625 L 8.984375 -12.40625 L 8.984375 0 L 6.46875 0 L 6.46875 -0.84375 L 6.4375 -0.84375 C 5.800781 -0.132812 4.992188 0.21875 4.015625 0.21875 C 2.941406 0.21875 2.054688 -0.15625 1.359375 -0.90625 Z M 3.53125 -4.9375 C 3.207031 -4.613281 3.046875 -4.195312 3.046875 -3.6875 C 3.046875 -3.175781 3.203125 -2.757812 3.515625 -2.4375 C 3.835938 -2.125 4.257812 -1.96875 4.78125 -1.96875 C 5.28125 -1.96875 5.6875 -2.128906 6 -2.453125 C 6.320312 -2.773438 6.484375 -3.1875 6.484375 -3.6875 C 6.484375 -4.195312 6.316406 -4.613281 5.984375 -4.9375 C 5.660156 -5.269531 5.257812 -5.4375 4.78125 -5.4375 C 4.28125 -5.4375 3.863281 -5.269531 3.53125 -4.9375 Z M 3.53125 -4.9375 "/></g></g></g><g fill="#5588f8" fill-opacity="1"><g transform="translate(95.827164, 18.154838)"><g><path d="M 1.359375 -0.90625 C 0.671875 -1.664062 0.328125 -2.59375 0.328125 -3.6875 C 0.328125 -4.789062 0.671875 -5.71875 1.359375 -6.46875 C 2.054688 -7.226562 2.941406 -7.609375 4.015625 -7.609375 C 4.992188 -7.609375 5.800781 -7.300781 6.4375 -6.6875 L 6.4375 -7.40625 L 8.984375 -7.40625 L 8.984375 0 L 6.46875 0 L 6.46875 -0.84375 L 6.4375 -0.84375 C 5.800781 -0.132812 4.992188 0.21875 4.015625 0.21875 C 2.941406 0.21875 2.054688 -0.15625 1.359375 -0.90625 Z M 3.53125 -4.9375 C 3.207031 -4.613281 3.046875 -4.195312 3.046875 -3.6875 C 3.046875 -3.175781 3.203125 -2.757812 3.515625 -2.4375 C 3.835938 -2.125 4.257812 -1.96875 4.78125 -1.96875 C 5.28125 -1.96875 5.6875 -2.128906 6 -2.453125 C 6.320312 -2.773438 6.484375 -3.1875 6.484375 -3.6875 C 6.484375 -4.195312 6.316406 -4.613281 5.984375 -4.9375 C 5.660156 -5.269531 5.257812 -5.4375 4.78125 -5.4375 C 4.28125 -5.4375 3.863281 -5.269531 3.53125 -4.9375 Z M 3.53125 -4.9375 "/></g></g></g></svg>